<svg version="1.1" id="Layer_1" xmlns="http://www.w3.org/2000/svg" xmlns:xlink="http://www.w3.org/1999/xlink" x="0px" y="0px"
	 width="100%" viewBox="0 0 496 496" enable-background="new 0 0 496 496" xml:space="preserve">
<path fill="#000000" opacity="1.000000" stroke="none" 
	d="
M121.239807,238.182678 
	C114.894279,254.058716 108.033142,269.216644 96.321846,281.560272 
	C90.680969,287.505737 84.184570,291.886169 75.705582,292.725952 
	C73.290840,292.965057 71.010757,292.658783 68.849091,291.892151 
	C65.296539,290.632172 64.163147,287.858429 65.377457,284.288239 
	C72.754913,291.066498 76.653809,291.219025 85.327621,284.667908 
	C91.841759,279.747986 96.362061,273.062897 100.193634,266.041138 
	C107.373375,252.883575 114.091072,239.474609 121.156303,226.253220 
	C122.543625,223.657089 122.049782,221.920090 120.050362,220.142410 
	C114.421692,215.137955 107.648438,214.075348 100.839012,215.967529 
	C78.980873,222.041428 66.144676,237.260071 59.682903,258.369873 
	C58.598427,261.912689 58.692703,265.921844 62.144798,268.427307 
	C65.700874,271.008179 69.510490,270.030396 72.904350,267.825592 
	C82.084671,261.861633 87.026062,253.024139 89.545616,242.631805 
	C89.959740,240.923691 89.719788,238.370148 92.451607,239.081253 
	C95.098366,239.770203 93.964828,242.088196 93.370667,243.681808 
	C90.205681,252.170639 86.276596,260.229919 79.495331,266.526459 
	C78.278854,267.656006 77.014496,268.787170 75.607719,269.649078 
	C70.452553,272.807434 64.878365,275.142059 59.165730,271.720306 
	C53.558792,268.361908 54.015064,262.473724 54.690441,256.925629 
	C57.249474,235.903625 79.902328,208.725754 109.525818,211.642120 
	C122.607063,212.929947 131.421814,225.421875 129.045761,239.739624 
	C128.508484,242.977203 127.882195,246.199997 127.261467,249.625046 
	C129.913162,249.438660 130.372314,247.395309 131.340530,246.024246 
	C138.493164,235.895203 146.287598,226.387604 156.898666,219.632401 
	C163.150253,215.652542 169.791534,212.648926 177.391083,212.512375 
	C179.740662,212.470154 181.993591,212.748825 183.599228,216.637360 
	C178.645996,215.251831 174.613266,215.512695 170.734436,217.599609 
	C163.778778,221.341949 158.559677,226.869400 154.174088,233.224152 
	C144.222076,247.644638 136.855942,263.079193 134.732162,280.804626 
	C132.936127,295.794769 143.174194,305.717102 157.896881,302.937561 
	C165.239365,301.551361 171.412445,298.495239 176.383881,292.922302 
	C177.540100,291.626221 178.967743,289.573944 180.822723,291.655334 
	C182.262482,293.270813 180.709885,294.844330 179.445358,295.877289 
	C168.077164,305.163635 155.462173,309.552063 140.907501,304.817200 
	C131.068710,301.616425 125.980515,290.469818 127.992592,277.952118 
	C130.028519,265.286102 134.593307,253.582596 140.872925,242.478729 
	C141.444290,241.468399 141.984161,240.437241 142.471558,239.384689 
	C142.585464,239.138733 142.425400,238.765900 142.341644,237.991638 
	C139.942520,238.975525 138.878052,241.019577 137.623444,242.811432 
	C129.682526,254.152695 122.598099,266.015167 116.025520,278.195862 
	C114.447334,281.120667 112.614929,283.923126 110.716347,286.654602 
	C109.594292,288.268890 108.020897,290.342407 105.878784,288.678406 
	C103.894897,287.137299 105.748833,285.385925 106.753372,283.940979 
	C107.798347,282.437897 109.034523,281.067230 110.070923,279.558838 
	C118.923477,266.674896 124.073814,252.428177 125.625977,236.885300 
	C125.756927,235.574112 125.582291,234.222977 125.450783,232.900223 
	C125.406235,232.452087 125.056396,232.034302 124.673485,231.248489 
	C122.503555,233.090637 122.423378,235.726181 121.239807,238.182678 
z"/>
<path fill="#000000" opacity="1.000000" stroke="none" 
	d="
M424.263702,261.830444 
	C427.871887,263.512451 427.871887,263.512451 428.973724,267.481995 
	C430.045288,266.618896 431.050964,265.808899 431.883362,265.138458 
	C432.273010,263.167450 429.852386,263.227783 429.968323,261.626587 
	C430.455170,260.146881 432.630585,261.264771 432.945312,259.990265 
	C434.190002,258.018616 431.649048,257.227692 432.075256,255.519501 
	C432.569061,255.493042 433.102753,255.300049 433.465851,255.470490 
	C436.945282,257.103638 436.294891,259.747772 434.345978,263.320557 
	C440.161682,257.085693 440.453125,255.129761 437.130676,248.840317 
	C434.522003,243.902008 430.705200,239.919662 426.716034,236.140350 
	C423.698212,233.281281 420.482574,230.698883 418.093109,227.181976 
	C416.077789,224.215759 412.801086,223.473679 409.295380,223.320740 
	C396.730438,222.772552 384.549622,224.650574 372.629852,228.597260 
	C370.362335,229.348038 367.893219,229.490051 365.360596,229.343964 
	C374.116150,225.372070 384.011444,224.543533 392.589203,219.719696 
	C388.208832,214.392593 384.564972,213.584015 379.331696,216.691406 
	C372.935364,220.489426 366.640228,224.457916 360.227295,228.398193 
	C358.875854,225.984528 361.632812,225.452911 361.729858,223.896057 
	C358.693329,220.486328 357.382477,217.094482 359.935547,212.501495 
	C362.767059,207.407608 365.489563,202.271698 368.744141,197.425522 
	C371.929779,192.682037 369.502808,188.473557 367.640320,182.857880 
	C359.580017,194.011292 358.630096,206.302063 354.831177,217.585495 
	C354.106689,211.821548 356.062164,206.390915 356.349640,200.763153 
	C353.505066,206.006119 353.740845,212.198898 351.188904,217.539459 
	C350.127716,210.936249 352.327393,204.772217 353.956085,198.674957 
	C359.296021,178.683868 368.458832,160.759445 383.961151,146.565903 
	C385.799347,144.882874 387.656036,143.133347 389.772186,141.860092 
	C393.271973,139.754333 396.740265,140.005707 399.775146,143.024994 
	C401.827271,145.066620 403.371277,147.517105 404.212982,150.198471 
	C407.600739,160.990921 412.587402,171.244308 415.190430,182.279327 
	C416.180786,186.477692 415.676178,190.847794 414.826508,195.039429 
	C422.977814,201.334534 421.956940,208.549561 412.101105,215.054947 
	C410.437592,216.152939 408.747406,217.212357 407.117188,218.357452 
	C406.774109,218.598434 406.640381,219.137436 406.437073,219.492218 
	C407.149353,220.604156 408.175415,220.483658 409.165894,220.592484 
	C414.330994,221.160080 418.489166,223.071960 421.704224,227.628738 
	C425.334717,232.774384 431.344208,235.815292 434.899811,241.181900 
	C436.186035,243.123291 437.726868,244.913788 438.857269,246.937469 
	C442.984619,254.326309 442.072998,259.359131 435.900299,265.178253 
	C418.520844,281.562286 398.689087,281.511414 379.532776,270.709106 
	C378.150665,269.929718 376.645172,268.981720 380.077209,268.187195 
	C382.401703,269.165588 384.132996,270.001617 385.864288,270.837646 
	C392.497864,275.122772 399.870667,276.339966 407.572876,275.813812 
	C415.089081,275.300446 422.355255,274.096039 426.021515,265.767426 
	C425.472198,264.942810 424.752777,263.862793 424.043884,262.394897 
	C424.054382,262.006958 424.263702,261.830444 424.263702,261.830444 
M405.663788,172.789810 
	C408.017700,172.553238 409.773682,171.703354 408.270233,169.019394 
	C405.865906,164.727341 405.190826,159.888962 403.585632,155.351028 
	C402.310760,151.746933 401.177643,148.036346 398.481293,145.150742 
	C396.530670,143.063156 394.406372,141.665192 391.518097,143.724625 
	C385.563568,147.970428 380.247040,152.813019 376.135040,159.266327 
	C382.606384,158.901657 387.009216,167.289230 387.655823,174.955963 
	C388.124359,180.511703 383.445709,181.681625 379.234589,183.069061 
	C381.747192,185.176987 383.808990,187.308182 383.028320,190.792175 
	C382.102051,194.926178 378.863586,195.795563 374.920380,195.822723 
	C377.121490,198.800385 379.495422,200.926514 382.436584,201.409027 
	C387.223877,202.194412 388.232788,204.794312 386.915741,208.819626 
	C386.139557,211.191818 386.553467,212.692062 388.936890,213.525635 
	C392.509613,214.775131 395.216187,217.076736 397.036682,220.718369 
	C398.633942,219.958466 400.931824,219.540375 401.123138,218.662933 
	C402.236694,213.556381 407.401337,212.755814 410.201385,209.530289 
	C410.853058,208.779633 411.761078,208.232620 412.332123,207.435104 
	C413.340179,206.027252 415.220306,204.718475 413.821564,202.658463 
	C412.573334,200.820084 410.522278,201.177628 408.774841,201.563217 
	C404.655426,202.472260 401.148926,204.824234 397.434082,206.693329 
	C395.640442,207.595779 394.033234,209.363022 391.556000,208.686127 
	C393.050354,204.790756 395.386139,202.157822 399.132965,200.559372 
	C401.542633,199.531342 403.730408,197.856430 405.813110,196.212372 
	C412.181610,191.185135 412.400513,181.704865 405.920410,175.320969 
	C398.106354,181.724548 395.699829,191.624557 390.583832,199.726517 
	C393.418365,189.736801 396.238739,179.792770 405.009552,173.005020 
	C405.009552,173.005020 405.091675,172.938126 405.663788,172.789810 
M376.196289,180.693146 
	C380.146088,180.409851 384.178680,180.250031 385.181732,174.745712 
	C380.944580,174.678452 377.921112,177.654373 373.563446,177.999237 
	C375.904358,172.943207 381.320251,172.057709 384.401581,167.926224 
	C379.558838,166.864471 377.746979,170.308701 375.406006,172.491745 
	C373.032471,174.705215 371.726746,178.207169 367.264832,179.006027 
	C369.154602,175.420288 370.715454,172.458649 372.276337,169.496994 
	C362.114105,181.375549 362.114105,181.375549 362.014282,185.815399 
	C362.525055,185.069412 362.848450,184.513229 363.251129,184.022064 
	C367.163483,179.250046 368.784271,179.504349 371.389069,185.163696 
	C372.280823,187.101105 373.494720,188.890274 374.386078,190.827820 
	C375.309875,192.835968 376.563782,193.889832 378.630005,192.520920 
	C380.796112,191.085861 381.268829,189.033615 379.562622,186.992310 
	C378.634186,185.881561 377.025269,185.348984 376.057312,184.258987 
	C375.262939,183.364517 372.583344,182.358917 376.196289,180.693146 
M365.973663,215.009598 
	C370.129120,211.263077 374.284576,207.516571 378.527130,203.691513 
	C376.953522,201.374786 375.398804,199.836853 372.898956,198.970535 
	C369.235352,204.674377 365.909668,210.260361 364.110413,216.708084 
	C364.584442,216.270187 365.058441,215.832291 365.973663,215.009598 
M365.551910,219.982498 
	C365.341370,220.417465 365.008209,220.871307 365.624146,221.240005 
	C365.740204,221.309494 365.980377,221.286896 366.104584,221.210861 
	C371.598541,217.847412 377.176208,214.608109 382.526001,211.028336 
	C384.444244,209.744736 385.090179,207.396591 384.891266,203.868958 
	C377.751129,209.031662 371.255035,213.572418 365.551910,219.982498 
z"/>
<path fill="#000000" opacity="1.000000" stroke="none" 
	d="
M172.923157,252.939209 
	C174.972687,251.225555 176.931366,249.834656 176.325073,246.435440 
	C171.215149,246.998886 168.061432,250.385056 165.190948,253.862534 
	C160.399109,259.667603 156.834076,266.300354 153.331207,272.930328 
	C151.742538,275.937256 149.743240,277.154846 146.499985,275.579376 
	C145.480087,273.473450 146.998535,272.044098 147.834351,270.535187 
	C155.341583,256.982239 162.974060,243.498123 170.406113,229.904343 
	C172.254578,226.523346 174.333405,224.769958 178.503891,226.517258 
	C176.988358,232.578827 172.373947,236.988647 170.909012,242.923309 
	C172.982330,243.571838 174.628189,242.492950 176.362946,242.237534 
	C178.848862,241.871552 181.195221,242.211716 182.573868,244.394562 
	C184.086578,246.789658 183.291580,249.195984 181.621628,251.324463 
	C179.172958,254.445557 175.739578,256.138458 172.294754,257.852112 
	C169.987961,258.999695 168.390869,269.082458 170.228500,270.801239 
	C172.002090,272.460144 173.628632,271.433105 175.105667,270.232269 
	C179.473602,266.680969 182.070862,261.786865 184.917404,257.096069 
	C188.045105,251.942001 191.218887,246.830856 196.692078,243.780380 
	C201.087753,241.330475 205.247955,241.081146 208.697586,245.473022 
	C212.237000,242.447052 212.237000,242.447052 217.055832,243.486008 
	C215.417374,248.632980 212.102783,252.854950 209.829376,257.566071 
	C208.239594,260.860626 206.485672,264.077850 204.961411,267.401337 
	C204.186157,269.091736 203.702209,271.104553 205.396667,272.489532 
	C207.455902,274.172638 209.178619,272.465546 210.725296,271.323425 
	C214.017960,268.891998 215.908371,265.288300 218.160141,261.993561 
	C218.870148,260.954651 219.346039,259.520660 221.092117,259.852417 
	C221.217773,264.898315 214.726196,273.948059 209.532578,275.896851 
	C204.630951,277.736023 200.754929,276.277527 198.184967,271.764130 
	C188.233749,278.597198 184.555389,278.074860 181.236130,269.334686 
	C178.907150,271.216736 176.771591,273.244324 174.343842,274.822357 
	C171.741013,276.514221 168.670868,277.285767 165.840195,275.526733 
	C162.902573,273.701294 163.563446,270.525848 163.155060,267.536255 
	C162.080124,259.666992 165.958389,255.626862 172.923157,252.939209 
M200.300079,246.951904 
	C194.323761,252.490662 190.170654,259.138214 188.379776,267.118134 
	C188.001785,268.802429 187.607468,270.983429 189.581863,272.064606 
	C191.620880,273.181152 192.979477,271.474640 194.266281,270.247925 
	C200.099335,264.687317 203.256821,257.600128 205.211487,249.988831 
	C206.115204,246.469788 204.606918,244.776978 200.300079,246.951904 
z"/>
<path fill="#000000" opacity="1.000000" stroke="none" 
	d="
M282.135651,261.088501 
	C280.976990,263.528870 279.974182,265.632416 279.008270,267.752777 
	C278.276093,269.360016 277.902649,271.032440 279.561096,272.266785 
	C281.125183,273.430908 282.785400,272.911285 284.209351,271.901886 
	C287.399109,269.640747 289.545532,266.465576 291.635590,263.233307 
	C292.554260,261.812622 292.882019,259.621185 296.577850,259.891724 
	C293.641907,266.487793 290.504547,272.381897 284.330658,275.599304 
	C279.734833,277.994324 275.264252,276.532318 272.248077,272.112946 
	C263.403198,278.297821 260.483734,278.097778 255.229599,270.949646 
	C251.251190,273.451447 247.638382,276.872040 242.311081,276.409760 
	C237.537216,275.995514 235.416870,273.446564 236.510651,268.765076 
	C237.686005,263.734375 241.104095,259.965088 243.874771,255.830307 
	C245.785797,252.978439 248.279800,250.460510 249.446640,246.838593 
	C246.482651,245.529175 244.792999,247.366608 243.009811,248.672501 
	C234.521423,254.888840 229.825378,263.981079 224.909103,272.863037 
	C223.199066,275.952454 221.257660,277.517578 217.817841,275.793396 
	C217.017563,274.723083 217.508347,273.771698 217.978561,272.922150 
	C223.060211,263.741089 228.188553,254.585846 233.270554,245.404968 
	C234.355774,243.444489 235.894028,242.675491 238.149658,242.638550 
	C240.344406,242.602600 240.850235,243.872726 241.064041,245.659546 
	C243.298553,244.559113 245.093658,243.037308 247.428802,242.471588 
	C249.658539,241.931366 251.795578,241.716522 253.509445,243.442856 
	C255.272690,245.218933 254.894333,247.479141 254.172485,249.560242 
	C252.177414,255.312119 248.277618,259.953461 245.062134,265.001892 
	C243.723083,267.104248 240.710785,269.764313 243.077469,271.981079 
	C245.775238,274.507965 248.616287,271.693237 250.840820,269.761597 
	C254.149719,266.888397 256.550934,263.341858 258.360077,259.305634 
	C261.042328,253.321564 264.442017,247.782761 270.171997,244.161804 
	C275.379120,240.871292 278.532990,241.247894 283.184174,245.640152 
	C285.045990,242.817001 287.579010,241.857498 291.753937,243.472565 
	C288.550812,249.333984 285.429108,255.046432 282.135651,261.088501 
M270.166992,251.693832 
	C266.891418,256.151825 264.090546,260.877014 262.719849,266.279327 
	C262.206573,268.302216 261.418762,270.861664 263.799530,272.145782 
	C265.930359,273.295044 267.608337,271.435883 268.938293,270.024475 
	C274.192963,264.448059 277.364380,257.697144 279.451355,250.412918 
	C279.860321,248.985565 279.912811,247.340714 278.451080,246.313110 
	C276.863312,245.196869 275.549896,246.248840 274.442017,247.218811 
	C273.071472,248.418777 271.885651,249.829727 270.166992,251.693832 
z"/>
<path fill="#000000" opacity="1.000000" stroke="none" 
	d="
M386.231110,270.971649 
	C384.132996,270.001617 382.401703,269.165588 380.377991,268.186279 
	C375.812073,264.411041 371.538605,260.779083 366.645233,256.620331 
	C367.211060,261.361969 367.824677,265.242920 368.083130,269.147369 
	C368.235901,271.455444 368.067169,274.141693 365.565430,275.188599 
	C363.080688,276.228394 361.653290,274.007233 360.239014,272.420654 
	C352.909271,264.197998 345.967316,255.704315 341.921509,245.266968 
	C341.443298,244.033371 341.045258,242.761368 340.723602,241.478683 
	C340.619171,241.062164 340.877167,240.554779 341.245911,238.692017 
	C346.379913,250.415329 352.875702,259.772400 362.154083,267.124390 
	C364.773651,259.300079 356.438080,240.611023 344.155334,226.329926 
	C344.002228,226.014816 344.052216,225.949707 344.052216,225.949707 
	C349.406494,227.398773 352.997009,231.273895 355.487183,235.728333 
	C358.891663,241.818253 363.025085,246.258560 370.882935,247.127380 
	C381.192566,254.772232 391.626556,260.531372 404.612640,262.725433 
	C402.723328,257.286407 399.369598,255.378418 395.103973,254.428085 
	C386.872528,252.594193 378.772491,250.300385 370.983673,247.011505 
	C370.060883,244.577499 366.980499,244.285095 365.901123,242.072754 
	C366.317413,240.522308 367.482239,241.137039 368.828125,241.305573 
	C378.344086,246.150070 387.700684,249.574921 398.572327,250.766541 
	C394.051025,242.846054 391.753052,241.461365 384.382050,241.359146 
	C379.252625,241.288025 374.124481,241.125580 368.995758,241.003922 
	C367.688538,238.957123 365.381439,239.699692 363.574890,239.046432 
	C362.322968,238.593750 360.928680,238.107239 360.789948,236.528259 
	C360.634613,234.760040 362.203552,234.352859 363.406891,234.011719 
	C370.280548,232.063080 377.281403,230.604874 384.384827,229.948257 
	C389.508850,229.474609 392.481232,232.546936 392.905640,237.900284 
	C392.955780,238.532608 392.887695,239.490494 393.251923,239.734863 
	C400.053558,244.298660 401.715820,252.314941 405.970947,258.575592 
	C408.610779,262.459686 407.752441,267.022278 406.324921,270.737579 
	C404.967255,274.270935 400.760956,274.633057 397.166473,273.916687 
	C393.598572,273.205688 390.117218,272.060455 386.231110,270.971649 
M402.855499,266.454376 
	C390.848724,263.761993 379.794373,258.630219 368.895142,252.928177 
	C375.852905,262.443695 384.730011,268.924164 396.188507,271.458618 
	C398.101501,271.881744 400.227417,272.011230 402.095734,271.142761 
	C404.000549,270.257294 405.896179,269.121094 402.855499,266.454376 
M381.589111,232.360992 
	C376.220154,233.350143 370.576508,233.356094 365.812714,236.886307 
	C374.002258,236.789703 382.187805,241.152466 390.466736,236.873413 
	C389.313751,231.832550 385.743927,232.354294 381.589111,232.360992 
z"/>
<path fill="#000000" opacity="1.000000" stroke="none" 
	d="
M313.408875,276.617798 
	C309.144318,274.722015 308.770813,271.401184 309.238281,267.706604 
	C309.578705,265.016022 310.626923,262.183258 307.527466,259.517853 
	C303.840668,263.718018 301.887421,268.693451 299.241364,273.194122 
	C297.497742,276.159851 295.422882,277.146515 292.386597,275.551331 
	C291.564240,273.971832 292.475098,272.851746 293.104004,271.717316 
	C300.934509,257.592407 308.829376,243.502914 316.594574,229.342300 
	C318.413788,226.024796 320.662109,224.758499 325.019012,226.732147 
	C322.369293,231.772858 319.797333,236.665634 317.291748,241.432159 
	C319.363129,243.556015 321.135315,242.040283 322.837708,242.040909 
	C325.249969,242.041779 327.623932,242.375916 328.916077,244.685181 
	C330.208954,246.995743 329.341644,249.182373 327.956635,251.221085 
	C326.100708,253.952988 323.341339,255.470703 320.511597,256.930756 
	C317.375458,258.548920 314.292511,266.535614 315.612305,269.652954 
	C316.576935,271.931427 318.237823,271.970337 320.075134,270.758118 
	C322.761993,268.985413 324.764435,266.562897 326.522644,263.889526 
	C327.641632,262.188171 328.355377,259.925262 331.020386,259.753174 
	C331.153473,267.295166 322.128540,276.055695 313.408875,276.617798 
M314.266541,255.593719 
	C317.678741,253.279999 322.173248,252.016800 323.122498,246.063812 
	C316.908173,247.796906 312.822632,250.927658 309.981415,256.256195 
	C311.592896,256.894623 312.638733,256.460480 314.266541,255.593719 
z"/>
<path fill="#000000" opacity="1.000000" stroke="none" 
	d="
M343.979797,226.049164 
	C342.435425,227.824265 341.238129,229.897766 338.962067,230.857437 
	C334.639557,232.679916 330.797791,230.932037 329.434967,225.907730 
	C328.522949,222.545395 326.682037,221.272156 323.486572,220.218185 
	C310.655609,215.986160 300.754425,208.365784 297.223236,194.607864 
	C295.680420,188.597076 296.672211,182.351837 296.873505,176.224335 
	C296.944397,174.066940 298.198181,171.753571 300.945282,172.180511 
	C303.505920,172.578491 303.390686,174.946564 303.365234,176.978989 
	C303.348145,178.343948 303.229187,179.971237 302.141510,180.661957 
	C296.748962,184.086487 299.094818,188.793594 300.170197,193.003464 
	C303.611877,206.477386 312.796539,214.463074 325.638367,218.759995 
	C327.309601,219.319183 328.841003,219.863586 329.943115,217.867310 
	C331.298126,215.412994 329.321838,214.692535 327.827911,213.676880 
	C318.309662,207.205719 312.710602,198.353683 312.119537,186.759125 
	C311.767883,179.860565 314.041870,173.340332 316.117737,166.869461 
	C316.616913,165.313507 317.888153,163.824890 319.889008,164.326569 
	C321.774567,164.799316 322.305786,166.421478 322.318756,168.227478 
	C322.335144,170.512878 321.869049,173.132584 319.687347,173.723480 
	C314.965454,175.002350 314.721100,178.720337 314.437439,182.251678 
	C313.521973,193.649109 322.395813,208.706055 332.633118,213.535706 
	C333.219635,213.812408 333.877350,214.026398 334.518799,214.085175 
	C343.236450,214.883972 344.524353,216.347290 344.093628,225.522736 
	C344.052216,225.949707 344.002228,226.014816 343.979797,226.049164 
z"/>
<path fill="#000000" opacity="1.000000" stroke="none" 
	d="
M423.955322,262.101440 
	C421.644836,263.329071 419.433472,264.462219 417.268524,265.571564 
	C418.800476,271.605652 418.476990,272.334839 413.650299,272.990936 
	C415.010773,270.585327 415.424652,268.582458 413.112366,266.483368 
	C407.378418,261.278137 406.700195,253.166351 402.522156,246.880447 
	C405.561829,247.778168 406.655212,250.522491 408.055817,252.847153 
	C409.075653,254.539871 409.709290,256.470795 410.465393,258.315857 
	C412.727600,263.836029 415.140198,264.683472 419.888275,261.295563 
	C422.446838,259.469940 425.502045,257.392822 425.186859,253.931946 
	C424.890961,250.682358 421.611877,249.323120 418.907562,248.063232 
	C416.967957,247.159622 414.854340,246.580521 412.768616,246.053467 
	C410.716400,245.534882 408.601471,245.264450 406.426605,244.869202 
	C407.356934,242.233292 412.288635,245.760651 411.437164,240.942947 
	C416.008850,241.896774 420.330688,242.798477 424.866241,243.744751 
	C422.965302,238.262131 417.792999,237.135971 401.690918,238.482834 
	C403.080811,235.544357 405.794159,235.738174 407.899750,235.063232 
	C410.233826,234.315033 412.759094,234.150833 414.913818,232.819153 
	C413.004700,228.877518 412.462433,228.849304 408.197083,231.084381 
	C405.764130,232.359283 404.026459,234.805634 400.905304,234.984283 
	C403.281403,230.675995 407.013672,227.863174 411.795898,227.089111 
	C414.949921,226.578583 416.935608,229.102783 417.949585,231.958679 
	C419.030151,235.001984 416.201935,235.144943 413.650909,236.017761 
	C426.191589,237.810562 428.853333,239.921188 429.490601,247.968292 
	C428.116394,249.260880 426.714844,247.351898 425.012085,248.100021 
	C428.472931,252.619919 428.017731,257.011963 424.396606,261.524719 
	C424.263702,261.830444 424.054382,262.006958 423.955322,262.101440 
z"/>
<path fill="#000000" opacity="1.000000" stroke="none" 
	d="
M252.982269,325.944305 
	C252.607422,329.496735 249.487747,329.429230 246.281189,330.643951 
	C248.395447,330.860718 249.706345,330.995117 250.916245,331.119141 
	C251.887314,334.010620 246.499329,334.466461 243.079147,332.014404 
	C242.546143,331.632233 242.036896,331.216919 241.364700,330.700134 
	C240.403610,331.410706 239.579559,332.250122 238.581512,332.719635 
	C233.077896,335.308990 229.737183,333.198395 229.686264,327.177582 
	C229.679214,326.345276 229.729965,325.508331 229.660156,324.681458 
	C229.342728,320.922668 229.807175,318.202850 234.811737,318.547607 
	C239.435043,318.866150 240.542160,321.032715 239.619370,325.088379 
	C239.571381,325.299316 239.947296,325.606659 240.344330,326.190277 
	C242.777786,324.886017 244.258011,321.631073 247.752655,322.217773 
	C249.983307,322.592255 251.178223,324.095184 252.745026,325.787872 
	C253.002502,325.984558 252.982269,325.944305 252.982269,325.944305 
z"/>
<path fill="#000000" opacity="1.000000" stroke="none" 
	d="
M339.519714,332.229889 
	C338.717560,330.076080 338.712677,327.926086 336.781067,326.486847 
	C334.441284,328.037567 336.112579,330.789581 334.970764,332.727600 
	C330.963165,335.113861 326.682190,332.398834 322.527039,333.184784 
	C321.352997,333.406830 320.370392,332.164551 320.116943,331.002686 
	C319.559723,328.448486 318.896698,325.841400 318.932648,323.265076 
	C318.951263,321.929779 319.510498,319.359772 321.653381,319.856354 
	C323.732269,320.338104 325.100494,322.447540 324.376312,324.673035 
	C323.752747,326.589264 323.016846,328.274353 324.054108,330.428101 
	C327.914093,328.583282 325.514465,321.297882 331.605927,322.076752 
	C335.378052,322.559082 339.927429,321.499115 341.376556,326.596527 
	C343.583008,325.979309 343.242249,323.239288 345.389099,323.388489 
	C346.312958,329.893097 341.118469,338.461731 336.825562,337.315948 
	C336.987793,335.286560 340.375549,335.095459 339.519714,332.229889 
z"/>
<path fill="#000000" opacity="1.000000" stroke="none" 
	d="
M282.063477,325.553741 
	C279.291016,325.004700 279.457184,326.941315 279.216248,328.527863 
	C278.979034,330.089966 279.533783,331.936523 277.675354,332.886688 
	C274.839752,332.763062 276.424805,329.905609 275.142395,328.799622 
	C272.797485,333.140381 269.240326,334.892822 266.184723,333.259979 
	C263.523132,331.837738 262.309967,327.555298 263.857452,325.044800 
	C265.868744,321.781830 269.586090,321.656738 274.305878,324.742188 
	C277.201935,321.835358 281.055145,321.213531 284.041473,323.430908 
	C287.180054,325.761322 286.136230,329.575378 284.778717,333.185425 
	C280.621094,331.456848 283.330750,328.023102 282.063477,325.553741 
M266.780334,326.426605 
	C266.156921,328.343445 266.284668,330.088501 268.288055,331.072662 
	C269.346649,331.592682 270.231781,330.922516 270.703064,329.956879 
	C271.367554,328.595367 271.878265,327.110199 270.825531,325.742920 
	C269.614105,324.169556 268.317902,324.479950 266.780334,326.426605 
z"/>
<path fill="#000000" opacity="1.000000" stroke="none" 
	d="
M198.495667,328.063873 
	C198.485474,330.024689 198.877029,331.756104 196.978134,333.123718 
	C193.402588,331.495087 197.032288,326.903229 193.629333,325.028961 
	C190.417740,326.712463 193.571548,331.282440 190.190628,333.062744 
	C186.625992,331.591003 189.284973,327.983063 187.758591,325.573242 
	C181.677063,325.006409 186.705872,332.117615 182.459198,333.036224 
	C179.929504,330.363800 180.506851,326.986725 181.520462,324.071503 
	C182.361084,321.653809 185.170883,322.511261 187.257294,322.501709 
	C189.075882,322.493378 190.920288,322.692688 192.707977,322.456879 
	C196.826477,321.913635 198.653412,323.665924 198.495667,328.063873 
z"/>
<path fill="#000000" opacity="1.000000" stroke="none" 
	d="
M287.423645,330.228882 
	C286.326813,325.770081 287.752930,322.912506 291.969421,322.199432 
	C294.101532,321.838867 294.453796,319.717468 296.069366,319.044495 
	C298.101868,321.345093 299.023468,331.163696 297.407532,332.757935 
	C295.548035,334.592499 289.843018,333.334625 287.423645,330.228882 
M293.056519,325.188507 
	C289.503021,327.295929 289.454620,328.257111 292.942902,331.080078 
	C294.709412,329.371643 295.003021,327.569977 293.056519,325.188507 
z"/>
<path fill="#000000" opacity="1.000000" stroke="none" 
	d="
M311.078003,321.155853 
	C310.165344,324.164856 312.845947,323.965363 314.144684,324.850525 
	C316.158234,326.222900 318.137299,327.456238 317.308624,330.340363 
	C316.521362,333.080322 314.190826,333.758942 311.821533,333.725220 
	C309.205261,333.687988 306.594788,333.125031 306.325104,329.396118 
	C309.099121,328.890076 311.383087,334.191895 314.095459,329.699677 
	C312.180176,326.383240 305.351929,326.983826 307.023163,320.992615 
	C307.528076,319.182678 309.139648,318.464020 310.892761,318.364136 
	C313.241821,318.230255 315.620148,318.234009 316.305969,321.364960 
	C314.435303,322.953369 313.036835,319.758667 311.078003,321.155853 
z"/>
<path fill="#000000" opacity="1.000000" stroke="none" 
	d="
M207.195007,322.649780 
	C209.363007,323.819916 210.806122,325.167023 210.226318,327.516663 
	C209.548615,330.263153 206.779739,328.769104 204.950500,330.029236 
	C206.041962,331.821808 208.481735,330.103638 209.678085,331.867157 
	C207.337982,334.370422 204.766617,334.299988 202.218231,332.580933 
	C199.919113,331.029938 199.199020,328.699005 200.122253,326.028931 
	C201.246552,322.777435 203.693146,321.948853 207.195007,322.649780 
z"/>
<path fill="#000000" opacity="1.000000" stroke="none" 
	d="
M162.044281,333.853271 
	C157.874542,332.701294 155.351273,330.587280 156.914993,326.264618 
	C158.182541,322.760742 160.993103,321.651733 164.528992,322.670654 
	C167.031906,323.391907 168.434662,325.167175 168.383926,327.795898 
	C168.310028,331.624786 165.906326,333.308807 162.044281,333.853271 
M160.779877,330.216949 
	C163.555710,332.554932 164.215378,330.292084 164.669968,328.272919 
	C165.005981,326.780487 164.724380,324.761414 162.859467,324.829437 
	C159.747940,324.942841 160.076691,327.410248 160.779877,330.216949 
z"/>
<path fill="#000000" opacity="1.000000" stroke="none" 
	d="
M348.435089,323.288879 
	C350.787384,322.066742 354.462219,322.025909 354.207397,323.638245 
	C353.700348,326.846527 357.733002,329.816193 354.592407,332.657898 
	C352.692322,334.377136 350.304810,334.166290 348.214935,332.656036 
	C347.769928,332.334442 347.638611,331.578857 347.423248,331.145050 
	C348.553589,329.141113 349.949463,331.423676 351.190704,330.437439 
	C349.313019,328.538025 345.730499,327.262787 348.435089,323.288879 
z"/>
<path fill="#000000" opacity="1.000000" stroke="none" 
	d="
M253.016388,326.002197 
	C253.014832,325.056335 252.638016,324.039368 253.539047,323.100677 
	C256.133057,322.572083 256.274078,325.509064 258.296265,326.454010 
	C260.022980,326.353271 259.643127,323.310120 261.708191,323.214111 
	C262.841614,329.243683 257.752197,338.061615 252.781387,337.521912 
	C257.529633,333.887543 255.898621,330.188721 253.191528,326.217377 
	C252.982269,325.944305 253.002502,325.984558 253.016388,326.002197 
z"/>
<path fill="#000000" opacity="1.000000" stroke="none" 
	d="
M179.015961,331.694702 
	C176.271957,333.910065 173.111221,334.998383 170.906097,332.409393 
	C168.670914,329.785095 168.542999,326.249451 170.565933,322.884583 
	C173.940720,324.648865 170.740494,328.778625 173.933914,330.279449 
	C176.399826,329.516296 175.552261,327.370483 175.823288,325.729706 
	C176.042130,324.404785 176.069092,322.828400 177.969467,323.092712 
	C179.417023,323.294037 179.509399,324.642242 179.461914,325.835205 
	C179.389420,327.656616 179.252243,329.475464 179.015961,331.694702 
z"/>
<path fill="#000000" opacity="1.000000" stroke="none" 
	d="
M214.056168,334.110931 
	C215.217087,329.850220 210.707642,327.134521 211.576279,323.097198 
	C214.826157,322.827667 214.454208,326.117920 216.317413,327.280701 
	C218.214691,326.721283 217.561066,323.562653 219.916443,323.316528 
	C220.618286,329.250458 216.173157,337.431763 211.992096,337.837219 
	C210.900208,335.750916 213.356445,335.595032 214.056168,334.110931 
z"/>
<path fill="#000000" opacity="1.000000" stroke="none" 
	d="
M151.356873,321.658234 
	C151.508026,320.372040 151.243134,319.123962 152.573120,318.928070 
	C153.911224,318.730927 154.232758,319.822754 154.249023,320.850769 
	C154.298706,323.990692 154.439819,327.145386 154.202957,330.268341 
	C154.024811,332.616882 152.139801,333.665161 149.993393,333.697540 
	C148.017456,333.727325 145.915070,333.433655 146.070038,330.670197 
	C147.293381,329.019257 149.085281,331.049927 150.496429,329.486267 
	C151.580643,327.321838 150.899170,324.587585 151.356873,321.658234 
z"/>
<path fill="#000000" opacity="1.000000" stroke="none" 
	d="
M386.522980,151.019348 
	C386.476105,150.395584 386.505310,150.070038 386.534515,149.744492 
	C390.643951,150.868713 395.476288,148.427460 399.035156,152.310471 
	C400.294952,153.684982 400.758362,155.267105 399.758118,156.820160 
	C398.614258,158.596268 397.041229,159.745422 394.765076,157.911606 
	C395.126923,156.222122 398.984558,156.011993 396.906158,153.430618 
	C395.428650,151.595490 393.987305,153.088669 392.543884,153.789307 
	C389.677429,155.180679 387.828949,153.951462 386.522980,151.019348 
z"/>
<path fill="#000000" opacity="1.000000" stroke="none" 
	d="
M404.143677,161.275360 
	C403.343323,163.857285 401.839478,165.362885 399.423737,165.095062 
	C397.168701,164.845047 396.320801,163.139023 396.087433,160.289017 
	C398.560303,161.511063 400.679382,163.059189 402.238037,159.769363 
	C402.726868,158.737579 403.820496,159.919983 404.143677,161.275360 
z"/>
<path fill="#000000" opacity="1.000000" stroke="none" 
	d="
M404.970215,173.040497 
	C403.802032,173.203064 402.651276,173.612900 401.233398,172.566040 
	C404.086334,170.750290 403.920959,168.559479 401.362274,166.277115 
	C406.487000,166.325714 407.072754,167.352646 405.221375,172.637009 
	C405.091675,172.938126 405.009552,173.005020 404.970215,173.040497 
z"/>
</svg>