<?xml version="1.0" encoding="UTF-8"?>
<svg version="1.1" viewBox="0 0 1200 1200" width="1200" height="1200" xmlns="http://www.w3.org/2000/svg">
<path transform="translate(120,540)" d="m0 0h960v240h-960zm15 15v210h930v-210z" fill="#5E616A"/>
<path transform="translate(240,817)" d="m0 0h720v16h-720z" fill="#72747C"/>
<path transform="translate(543,394)" d="m0 0h104l6 4 3 5 1 38 7 6 2 6v53h-10v-18l-121 1v17h-10v-56l4-6 5-2v-37l3-6zm4 9-3 2v36h9l1-9 4-6 5-3h27l4 2 4-1 3-1h27l6 4 3 8 1 6h9v-34l-3-4zm19 28-3 2v8h27l1-5-2-4-2-1zm37 0-3 3v7h28v-7l-3-3zm-66 19-3 5v23h122v-26l-2-2z" fill="#6B6E76"/>
<path transform="translate(343,625)" d="m0 0h32l3 6 16 55 1 5 7-25 11-38 2-3h33v9l-8 2-1 67 11 2v8h-41v-8l11-2-1-48-17 57-1 1h-17l-12-36-7-22-1 48 11 2v8h-35v-8l11-2-1-67-8-2v-8z" fill="#656770"/>
<path transform="translate(690,495)" d="m0 0h270v15h-270z" fill="#5E616A"/>
<path transform="translate(240,495)" d="m0 0h270v15h-270z" fill="#5E616A"/>
<path transform="translate(800,619)" d="m0 0h9l3 4v48h6l2-4 9-12-7-1v-9h31l1 1v7l-11 3-12 15 2 5 14 24v2l11 3v8h-28l-2-8-13-23-3-1v23l8 1v8h-37v-7l6-2h5v-73l-11-2v-7l1-1z" fill="#686B73"/>
<path transform="translate(479,619)" d="m0 0h9l3 4v48h6l2-4 9-12-7-1v-9h31l1 1v7l-11 3-12 15 2 5 14 24v2l11 3v8h-28l-2-8-13-23-3-1v23l8 1v8h-37v-7l6-2h5v-73l-11-2v-7l1-1z" fill="#686B73"/>
<path transform="translate(665,644)" d="m0 0h11l8 4 4 5 1 3 1 47 9 2v8h-37v-7l5-2h4l-1-43-2-3-3-1h-9l-5 1v45l8 2v8h-37v-8l10-1v-46l-10-2v-8l1-1 15-2h8l3 5 5-2z" fill="#676A73"/>
<path transform="translate(737,644)" d="m0 0h11l10 3 5 5 2 4v46l10 2v7l-9 3h-11l-5-3-1-2-5 2-6 3-4 1h-8l-8-3-5-4-3-8 1-10 7-8 9-4 15-3h5l-1-15-3-3h-11l-2 11-4 2h-8l-5-4v-8l4-6 6-4 9-3zm7 40-10 3-4 3-1 5 2 5 5 3 9-1 2-1v-17z" fill="#696C74"/>
<path transform="translate(574,644)" d="m0 0h11l10 3 5 5 2 4v46l10 2v7l-9 3h-11l-5-3-1-2-5 2-6 3-4 1h-8l-8-3-5-4-3-8 1-10 7-8 9-4 15-3h5l-1-15-3-3h-11l-2 11-4 2h-8l-5-4v-8l4-6 6-4 9-3zm7 40-10 3-4 3-1 5 2 5 5 3 9-1 2-1v-17z" fill="#696C74"/>
</svg>
