<?xml version="1.0" standalone="no"?>
<!DOCTYPE svg PUBLIC "-//W3C//DTD SVG 20010904//EN"
 "http://www.w3.org/TR/2001/REC-SVG-20010904/DTD/svg10.dtd">
<svg version="1.0" xmlns="http://www.w3.org/2000/svg"
 width="1200.000000pt" height="1200.000000pt" viewBox="0 0 1200.000000 1200.000000"
 preserveAspectRatio="xMidYMid meet">

<g transform="translate(0.000000,1200.000000) scale(0.100000,-0.100000)"
fill="#000000" stroke="none">
<path d="M4206 10243 c18 -177 84 -315 208 -438 90 -89 173 -138 296 -177 l75
-23 735 0 735 0 80 23 c215 62 386 217 468 422 27 69 47 161 47 217 l0 33
-1325 0 -1325 0 6 -57z"/>
<path d="M7252 9986 l-279 -314 -2 -686 c-2 -543 -5 -706 -17 -783 -82 -546
-431 -1019 -933 -1265 -130 -63 -241 -101 -396 -135 l-120 -27 -1185 -6
c-1170 -6 -1186 -6 -1261 -27 -337 -95 -571 -330 -660 -663 -19 -70 -23 -109
-22 -220 1 -266 67 -407 328 -710 554 -641 1263 -1030 2115 -1161 199 -31 682
-34 890 -6 788 107 1467 445 2005 998 521 537 838 1191 941 1944 23 164 26
635 6 795 -56 442 -163 796 -353 1171 -114 225 -270 461 -427 646 l-53 62 723
3 c810 4 765 0 927 79 66 33 103 60 166 123 122 121 194 269 211 430 l7 66
-1166 0 -1165 0 -280 -314z m-3255 -3887 c57 -27 97 -93 97 -159 0 -154 -187
-237 -297 -133 -42 40 -57 75 -57 133 0 137 133 219 257 159z"/>
<path d="M3857 8356 c-50 -18 -76 -42 -98 -91 -40 -86 -20 -145 83 -251 l72
-75 73 73 c82 81 103 118 103 176 0 77 -34 130 -105 163 -47 22 -76 23 -128 5z"/>
<path d="M7853 4627 c-15 -19 -156 -174 -313 -346 -157 -172 -286 -316 -288
-320 -4 -12 758 -5 827 8 149 29 271 93 378 199 114 114 185 264 199 422 l7
70 -391 0 -391 0 -28 -33z"/>
<path d="M4280 2651 c-6 -13 -10 -192 -10 -514 0 -466 1 -495 18 -510 24 -22
55 -21 75 1 14 15 17 40 17 123 0 57 4 109 8 114 4 6 26 27 48 48 l41 38 147
-158 c81 -87 156 -164 166 -171 24 -17 56 -7 76 23 22 33 14 45 -152 221 -79
84 -144 154 -144 157 0 3 63 61 140 128 77 67 142 130 145 140 8 24 -10 56
-36 64 -27 9 -44 -3 -252 -190 -93 -82 -172 -151 -178 -153 -5 -2 -9 121 -9
315 0 235 -3 322 -12 331 -20 20 -76 15 -88 -7z"/>
<path d="M8380 2651 c-6 -13 -10 -192 -10 -514 0 -466 1 -495 18 -510 24 -22
55 -21 75 1 14 15 17 40 17 123 0 57 4 109 8 114 4 6 26 27 48 48 l41 38 147
-158 c81 -87 156 -164 166 -171 24 -17 56 -7 76 23 22 33 14 45 -152 221 -79
84 -144 154 -144 157 0 3 63 61 140 128 77 67 142 130 145 140 8 24 -10 56
-36 64 -27 9 -44 -3 -252 -190 -93 -82 -172 -151 -178 -153 -5 -2 -9 121 -9
315 0 235 -3 322 -12 331 -20 20 -76 15 -88 -7z"/>
<path d="M2932 2604 l-22 -15 0 -473 c0 -445 1 -474 18 -489 23 -21 42 -21 68
-3 18 14 19 33 24 389 l5 375 149 -230 c82 -126 159 -236 172 -245 22 -14 26
-14 47 0 13 8 91 118 173 243 l149 228 5 -373 c5 -354 6 -373 24 -387 27 -19
52 -18 76 6 20 20 20 31 18 492 l-3 472 -27 16 c-21 11 -32 12 -45 4 -10 -5
-95 -125 -189 -265 -94 -140 -178 -263 -186 -274 -15 -19 -25 -5 -194 252
-159 241 -200 293 -232 293 -4 0 -18 -7 -30 -16z"/>
<path d="M5430 2361 c-91 -28 -174 -104 -218 -199 -24 -51 -27 -68 -27 -172 0
-137 21 -201 90 -277 63 -71 132 -105 221 -111 94 -6 158 15 222 73 l49 45 6
-42 c8 -61 49 -85 93 -54 18 14 19 31 22 355 3 331 2 341 -18 361 -43 43 -100
11 -100 -56 l0 -31 -39 38 c-70 65 -209 98 -301 70z m165 -102 c136 -34 214
-203 170 -367 -15 -56 -27 -75 -69 -117 -36 -36 -65 -55 -99 -64 -98 -28 -204
13 -258 97 -40 64 -52 114 -47 202 7 125 68 214 170 245 54 17 78 18 133 4z"/>
<path d="M6570 2361 c-51 -16 -96 -44 -137 -84 l-43 -41 0 38 c0 55 -15 76
-53 76 -18 0 -38 -5 -45 -12 -9 -9 -12 -101 -12 -353 0 -319 1 -343 18 -358
24 -22 45 -21 71 1 20 16 21 28 23 259 l3 241 30 43 c42 60 111 94 190 94 73
-1 115 -21 147 -72 22 -37 23 -47 28 -296 5 -241 6 -260 24 -273 27 -19 50
-18 69 4 15 16 17 50 17 265 0 140 -5 268 -11 297 -13 59 -59 125 -108 154
-37 21 -166 32 -211 17z"/>
<path d="M7510 2361 c-91 -28 -174 -104 -218 -199 -24 -51 -27 -68 -27 -172 0
-137 21 -201 90 -277 63 -71 132 -105 221 -111 94 -6 158 15 222 73 l49 45 6
-42 c8 -61 49 -85 93 -54 18 14 19 31 22 355 3 331 2 341 -18 361 -43 43 -100
11 -100 -56 l0 -31 -39 38 c-70 65 -209 98 -301 70z m165 -102 c136 -34 214
-203 170 -367 -15 -56 -27 -75 -69 -117 -36 -36 -65 -55 -99 -64 -98 -28 -204
13 -258 97 -40 64 -52 114 -47 202 7 125 68 214 170 245 54 17 78 18 133 4z"/>
</g>
</svg>
